<?xml version="1.0" standalone="no"?>
<!DOCTYPE svg PUBLIC "-//W3C//DTD SVG 20010904//EN"
"http://www.w3.org/TR/2001/REC-SVG-20010904/DTD/svg10.dtd">
<svg width="16cm" height="8cm" viewBox="0 0 1200 600"
xmlns="http://www.w3.org/2000/svg" xmlns:xlink="http://www.w3.org/1999/xlink">
<desc>Spectrum of spectra-data from xy</desc>
<!-- generated by JDXview v0.2c (N. Haider, 2003-2014) -->
<polyline fill="none" stroke="black" stroke-width="2"
points="
100,540 101,540 102,540 103,540 104,540 105,540 106,540 107,540 
108,540 109,540 110,540 111,540 112,540 113,540 114,540 115,540 
116,540 117,540 118,540 119,540 120,540 121,540 122,540 123,540 
124,540 125,540 126,540 127,540 128,540 129,540 130,540 131,540 
132,540 133,540 134,540 135,540 136,540 137,540 138,540 139,540 
140,540 141,540 142,540 143,540 144,540 145,540 146,540 147,540 
148,540 149,540 150,540 151,540 152,540 153,540 154,540 155,540 
156,540 157,540 158,540 159,540 160,540 161,540 162,540 163,540 
164,540 165,540 166,540 167,540 168,540 169,540 170,540 171,540 
172,540 173,540 174,540 175,540 176,540 177,540 178,540 179,540 
180,540 181,540 182,540 183,540 184,540 185,540 186,540 187,540 
188,540 189,540 190,540 191,540 192,540 193,540 194,540 195,540 
196,540 197,540 198,540 199,540 200,540 201,540 202,540 203,540 
204,540 205,540 206,540 207,540 208,540 209,540 210,540 211,540 
212,540 213,540 214,540 215,540 216,540 217,540 218,540 219,540 
220,540 221,540 222,540 223,540 224,540 225,540 226,540 227,540 
228,540 229,540 230,540 231,540 232,540 233,540 234,540 235,540 
236,540 237,540 238,540 239,540 240,540 241,540 242,540 243,540 
244,540 245,540 246,540 247,540 248,540 249,540 250,540 251,540 
252,540 253,540 254,540 255,540 256,540 257,540 258,540 259,540 
260,540 261,540 262,540 263,540 264,540 265,540 266,540 267,540 
268,540 269,540 270,540 271,540 272,540 273,540 274,540 275,540 
276,540 277,540 278,540 279,540 280,540 281,540 282,540 283,540 
284,540 285,540 286,540 287,540 288,540 289,540 290,540 291,540 
292,540 293,540 294,540 295,540 296,540 297,540 298,540 299,540 
300,540 301,540 302,540 303,540 304,540 305,540 306,540 307,540 
308,540 309,540 310,540 311,540 312,540 313,540 314,540 315,540 
316,540 317,540 318,540 319,540 320,540 320,539 320,537 320,532 
321,524 321,510 321,490 321,463 321,434 321,406 321,387 322,381 
322,390 322,412 322,441 322,470 322,496 322,514 323,527 323,534 
323,537 323,539 323,540 324,540 325,540 326,540 327,540 328,540 
328,539 328,538 328,534 329,527 329,513 329,489 329,453 329,405 
329,349 329,292 330,246 330,222 330,226 330,256 330,305 330,363 
330,418 331,463 331,496 331,517 331,529 331,535 331,538 331,539 
332,540 333,540 334,540 335,540 336,540 336,539 337,539 337,536 
337,532 337,523 337,508 337,486 337,457 338,424 338,394 338,373 
338,367 338,377 338,401 338,432 339,464 339,492 339,512 339,525 
339,533 339,537 339,539 340,540 341,540 342,540 343,540 344,540 
345,540 346,540 347,540 348,540 349,540 350,540 351,540 352,540 
353,540 354,540 355,540 356,540 357,540 358,540 359,540 360,540 
361,540 362,540 363,540 364,540 365,540 366,540 367,540 368,540 
369,540 370,540 371,540 372,540 373,540 374,540 375,540 376,540 
377,540 378,540 379,540 380,540 381,540 382,540 383,540 384,540 
385,540 386,540 387,540 388,540 389,540 390,540 391,540 392,540 
393,540 394,540 395,540 396,540 397,540 398,540 399,540 400,540 
401,540 402,540 403,540 404,540 405,540 406,540 407,540 408,540 
409,540 410,540 411,540 412,540 413,540 414,540 415,540 416,540 
417,540 418,540 419,540 420,540 421,540 422,540 423,540 424,540 
425,540 426,540 427,540 428,540 429,540 430,540 431,540 432,540 
433,540 434,540 435,540 436,540 437,540 438,540 439,540 440,540 
441,540 442,540 443,540 444,540 445,540 446,540 447,540 448,540 
449,540 450,540 451,540 452,540 453,540 454,540 455,540 456,540 
457,540 458,540 459,540 460,540 461,540 462,540 463,540 464,540 
465,540 466,540 467,540 468,540 469,540 470,540 471,540 472,540 
473,540 474,540 475,540 476,540 477,540 478,540 479,540 480,540 
481,540 482,540 483,540 484,540 485,540 486,540 487,540 488,540 
489,540 490,540 491,540 492,540 493,540 494,540 495,540 496,540 
497,540 498,540 499,540 500,540 501,540 502,540 503,540 504,540 
505,540 506,540 507,540 508,540 509,540 510,540 511,540 512,540 
513,540 514,540 515,540 516,540 517,540 518,540 519,540 520,540 
521,540 522,540 523,540 524,540 525,540 526,540 527,540 528,540 
529,540 530,540 531,540 532,540 533,540 534,540 535,540 536,540 
537,540 538,540 539,540 540,540 541,540 542,540 543,540 544,540 
545,540 546,540 547,540 548,540 549,540 550,540 551,540 552,540 
553,540 554,540 555,540 556,540 557,540 558,540 559,540 560,540 
561,540 562,540 563,540 564,540 565,540 566,540 567,540 568,540 
569,540 570,540 571,540 572,540 573,540 574,540 575,540 576,540 
577,540 578,540 579,540 580,540 581,540 582,540 583,540 584,540 
585,540 586,540 587,540 588,540 589,540 590,540 591,540 592,540 
593,540 594,540 595,540 596,540 597,540 598,540 599,540 600,540 
601,540 602,540 603,540 604,540 605,540 606,540 607,540 608,540 
609,540 610,540 611,540 612,540 613,540 614,540 615,540 616,540 
617,540 618,540 619,540 620,540 621,540 622,540 623,540 624,540 
625,540 626,540 627,540 628,540 629,540 630,540 631,540 632,540 
633,540 634,540 635,540 636,540 637,540 638,540 639,540 640,540 
641,540 642,540 643,540 644,540 645,540 646,540 647,540 648,540 
649,540 650,540 651,540 652,540 653,540 654,540 655,540 656,540 
657,540 658,540 659,540 660,540 661,540 662,540 663,540 664,540 
665,540 666,540 667,540 668,540 669,540 670,540 671,540 672,540 
673,540 674,540 675,540 676,540 677,540 678,540 679,540 680,540 
681,540 682,540 683,540 684,540 685,540 686,540 687,540 688,540 
689,540 690,540 691,540 692,540 693,540 694,540 695,540 695,539 
695,537 695,535 696,532 696,528 696,525 696,521 696,520 696,522 
697,525 697,529 697,533 697,536 697,538 697,539 698,540 699,540 
700,540 701,540 702,540 702,539 702,538 702,536 702,532 703,526 
703,518 703,507 703,496 703,485 703,478 703,474 704,475 704,478 
704,483 704,488 704,491 704,494 704,498 705,503 705,509 705,516 
705,522 705,528 705,533 705,536 706,538 706,539 706,540 707,540 
708,540 709,540 709,539 709,538 709,536 710,532 710,526 710,518 
710,507 710,495 710,483 710,472 711,464 711,457 711,451 711,443 
711,433 711,423 711,416 712,415 712,421 712,434 712,451 712,470 
712,486 712,500 713,510 713,517 713,523 713,527 713,531 713,534 
713,536 714,538 714,539 714,540 715,540 716,540 717,539 717,538 
717,537 717,535 717,531 717,527 717,522 718,516 718,509 718,499 
718,487 718,471 718,454 718,436 719,421 719,412 719,411 719,416 
719,427 719,439 719,451 720,460 720,468 720,476 720,485 720,494 
720,505 720,515 721,523 721,530 721,534 721,537 721,539 721,540 
722,540 723,540 724,540 724,539 725,539 725,537 725,535 725,531 
725,525 725,518 725,510 726,502 726,496 726,491 726,488 726,486 
726,483 727,479 727,476 727,474 727,475 727,481 727,490 727,501 
728,513 728,522 728,530 728,535 728,537 728,539 728,540 729,540 
730,540 731,540 732,540 733,540 733,539 733,537 733,535 733,532 
734,528 734,524 734,520 734,518 734,519 734,521 734,525 735,529 
735,533 735,536 735,538 735,539 735,540 736,540 737,540 738,540 
739,540 740,540 741,540 742,540 743,540 744,540 745,540 746,540 
747,540 748,540 749,540 750,540 751,540 752,540 753,540 754,540 
755,540 756,540 757,540 758,540 759,540 760,540 761,540 762,540 
763,540 764,540 765,540 766,540 767,540 768,540 769,540 770,540 
771,540 772,540 773,540 774,540 775,540 776,540 777,540 778,540 
779,540 780,540 781,540 782,540 783,540 784,540 785,540 786,540 
787,540 788,540 789,540 790,540 791,540 792,540 793,540 794,540 
795,540 796,540 797,540 798,540 799,540 800,540 801,540 802,540 
803,540 804,540 805,540 806,540 807,540 808,540 809,540 810,540 
811,540 812,540 813,540 814,540 815,540 816,540 817,540 818,540 
819,540 820,540 821,540 822,540 823,540 824,540 825,540 826,540 
827,540 828,540 829,540 830,540 831,540 832,540 833,540 834,540 
835,540 836,540 837,540 838,540 839,540 840,540 841,540 842,540 
843,540 844,540 845,540 846,540 847,540 848,540 849,540 850,540 
851,540 852,540 853,540 854,540 855,540 856,540 857,540 858,540 
859,540 860,540 861,540 862,540 863,540 864,540 865,540 866,540 
867,540 868,540 869,540 870,540 871,540 872,540 873,540 874,540 
875,540 876,540 877,540 878,540 879,540 880,540 881,540 882,540 
883,540 884,540 885,540 886,540 887,540 888,540 889,540 890,540 
891,540 892,540 893,540 894,540 895,540 896,540 897,540 898,540 
899,540 900,540 901,540 902,540 903,540 904,540 905,540 906,540 
907,540 908,540 909,540 910,540 911,540 912,540 913,540 914,540 
915,540 916,540 917,540 918,540 919,540 920,540 921,540 922,540 
923,540 924,540 925,540 926,540 927,540 928,540 929,540 930,540 
931,540 932,540 933,540 934,540 935,540 936,540 937,540 938,540 
939,540 940,540 941,540 942,540 943,540 944,540 945,540 946,540 
947,540 948,540 949,540 950,540 951,540 952,540 953,540 954,540 
955,540 956,540 957,540 958,540 959,540 960,540 961,540 962,540 
963,540 964,540 965,540 966,540 967,540 968,540 969,540 970,540 
971,540 972,540 973,540 974,540 975,540 976,540 977,540 978,540 
979,540 980,540 981,540 982,540 983,540 984,540 985,540 986,540 
987,540 988,540 989,540 990,540 991,540 992,540 993,540 994,540 
995,540 996,540 997,540 998,540 999,540 999,539 1000,537 1000,534 
1000,527 1000,514 1000,493 1000,463 1000,423 1001,379 1001,337 
1001,304 1001,290 1001,297 1001,325 1001,365 1002,411 1002,453 
1002,486 1002,510 1002,525 1002,533 1002,537 1003,539 1003,540 
1004,540 1005,540 1006,540 1007,539 1007,536 1007,531 1007,520 
1007,499 1007,464 1007,410 1008,338 1008,253 1008,168 1008,99 
1008,63 1008,68 1008,114 1009,188 1009,275 1009,357 1009,425 
1009,474 1009,506 1009,524 1010,533 1010,537 1010,539 1010,540 
1011,540 1012,540 1013,540 1014,540 1014,539 1014,537 1014,532 
1014,523 1014,508 1015,485 1015,452 1015,413 1015,372 1015,337 
1015,316 1015,315 1016,332 1016,365 1016,404 1016,444 1016,477 
1016,503 1016,520 1017,530 1017,535 1017,538 1017,539 1017,540 
1018,540 1019,540 1020,540 1021,540 1022,540 1023,540 1024,540 
1025,540 1026,540 1027,540 1028,540 1029,540 1030,540 1031,540 
1032,540 1033,540 1034,540 1035,540 1036,540 1037,540 1038,540 
1039,540 1040,540 1041,540 1042,540 1043,540 1044,540 1045,540 
1046,540 1047,540 1048,540 1049,540 1050,540 1051,540 1052,540 
1053,540 1054,540 1055,540 1056,540 1057,540 1058,540 1059,540 
1060,540 1061,540 1062,540 1063,540 1064,540 1065,540 1066,540 
1067,540 1068,540 1069,540 1070,540 1071,540 1072,540 1073,540 
1074,540 1075,540 1076,540 1077,540 1078,540 1079,540 1080,540 
1081,540 1082,540 1083,540 1084,540 1085,540 1086,540 1087,540 
1088,540 1089,540 1090,540 1091,540 1092,540 1093,540 1094,540 
1095,540 1096,540 1097,540 1098,540 1099,540 1100,540 1101,540 
1102,540 1103,540 1104,540 1105,540 1106,540 1107,540 1108,540 
1109,540 1110,540 1111,540 1112,540 1113,540 1114,540 1115,540 
1116,540 1117,540 1118,540 1119,540 1120,540 1121,540 1122,540 
1123,540 1124,540 1125,540 1126,540 1127,540 1128,540 1129,540 
1130,540 1131,540 1132,540 1133,540 1134,540 1135,540 1136,540 
1137,540 1138,540 1139,540 1140,540 1141,540 1142,540 1143,540 
1144,540 1145,540 1146,540 1147,540 1148,540 1149,540 1150,540 
1151,540 1152,540 1153,540 1154,540 1155,540 1156,540 1157,540 
1158,540 1159,540 1160,540 1161,540 1162,540 1163,540 1164,540 
1165,540 1166,540 1167,540 1168,540 1169,540 1170,540 1171,540 
1172,540 1173,540 1174,540 1175,540 1176,540 1177,540 1178,540 
1179,540 1180,540 
" />
<rect x="100" y="35" width="1080" height="505"
fill="none" stroke="black" stroke-width="2"/>
<g stroke="black" stroke-width="1">
<text x="1180" y="570" font-family="Verdana" font-size="14"
fill="black" text-anchor="middle">0.50</text>
<line x1="1180" y1="540" x2="1180" y2="555" />
<line x1="1137" y1="540" x2="1137" y2="550" />
<line x1="1094" y1="540" x2="1094" y2="550" />
<line x1="1050" y1="540" x2="1050" y2="550" />
<line x1="1007" y1="540" x2="1007" y2="550" />
<text x="964" y="570" font-family="Verdana" font-size="14"
fill="black" text-anchor="middle">1.00</text>
<line x1="964" y1="540" x2="964" y2="555" />
<line x1="921" y1="540" x2="921" y2="550" />
<line x1="878" y1="540" x2="878" y2="550" />
<line x1="834" y1="540" x2="834" y2="550" />
<line x1="791" y1="540" x2="791" y2="550" />
<text x="748" y="570" font-family="Verdana" font-size="14"
fill="black" text-anchor="middle">1.50</text>
<line x1="748" y1="540" x2="748" y2="555" />
<line x1="705" y1="540" x2="705" y2="550" />
<line x1="662" y1="540" x2="662" y2="550" />
<line x1="618" y1="540" x2="618" y2="550" />
<line x1="575" y1="540" x2="575" y2="550" />
<text x="532" y="570" font-family="Verdana" font-size="14"
fill="black" text-anchor="middle">2.00</text>
<line x1="532" y1="540" x2="532" y2="555" />
<line x1="489" y1="540" x2="489" y2="550" />
<line x1="446" y1="540" x2="446" y2="550" />
<line x1="402" y1="540" x2="402" y2="550" />
<line x1="359" y1="540" x2="359" y2="550" />
<text x="316" y="570" font-family="Verdana" font-size="14"
fill="black" text-anchor="middle">2.50</text>
<line x1="316" y1="540" x2="316" y2="555" />
<line x1="273" y1="540" x2="273" y2="550" />
<line x1="230" y1="540" x2="230" y2="550" />
<line x1="186" y1="540" x2="186" y2="550" />
<line x1="143" y1="540" x2="143" y2="550" />
<text x="1180" y="585" font-family="Verdana" font-size="14"
fill="black" text-anchor="end">PPM</text>
<text x="640" y="15" font-family="Verdana" font-size="14"
fill="black" text-anchor="middle">spectra-data from xy</text>
</g>
</svg>
